<svg xmlns="http://www.w3.org/2000/svg" width="2160" height="700" version="1.1"><defs><style type="text/css"><![CDATA[ .node circle {fill: #2b79a5;}.node text {font: 12px sans-serif;}.link {fill: none;stroke: #e0e0e0;stroke-width: 2px;} ]]></style></defs><g transform="translate(90,20)"><path class="link" d="M165,127.6300578034682C82.5,127.6300578034682 82.5,348.67052023121386 0,348.67052023121386" style="stroke: #2b79a5; stroke-opacity: 0.2;"></path><path class="link" d="M165,492.02312138728325C82.5,492.02312138728325 82.5,348.67052023121386 0,348.67052023121386" style="stroke: #2b79a5; stroke-opacity: 0.2;"></path><path class="link" d="M165,569.7109826589596C82.5,569.7109826589596 82.5,348.67052023121386 0,348.67052023121386" style="stroke: #2b79a5; stroke-opacity: 0.2;"></path><path class="link" d="M330,33.29479768786127C247.5,33.29479768786127 247.5,127.6300578034682 165,127.6300578034682" style="stroke: #2b79a5; stroke-opacity: 0.2;"></path><path class="link" d="M330,236.76300578034682C247.5,236.76300578034682 247.5,127.6300578034682 165,127.6300578034682" style="stroke: #2b79a5; stroke-opacity: 0.2;"></path><path class="link" d="M330,492.02312138728325C247.5,492.02312138728325 247.5,492.02312138728325 165,492.02312138728325" style="stroke: #2b79a5; stroke-opacity: 0.2;"></path><path class="link" d="M330,506.8208092485549C247.5,506.8208092485549 247.5,492.02312138728325 165,492.02312138728325" style="stroke: #2b79a5; stroke-opacity: 0.2;"></path><path class="link" d="M330,554.9132947976879C247.5,554.9132947976879 247.5,569.7109826589596 165,569.7109826589596" style="stroke: #2b79a5; stroke-opacity: 0.2;"></path><path class="link" d="M330,584.5086705202312C247.5,584.5086705202312 247.5,569.7109826589596 165,569.7109826589596" style="stroke: #2b79a5; stroke-opacity: 0.2;"></path><path class="link" d="M495,14.797687861271676C412.5,14.797687861271676 412.5,33.29479768786127 330,33.29479768786127" style="stroke: #2b79a5; stroke-opacity: 0.2;"></path><path class="link" d="M495,51.79190751445087C412.5,51.79190751445087 412.5,33.29479768786127 330,33.29479768786127" style="stroke: #2b79a5; stroke-opacity: 0.2;"></path><path class="link" d="M495,236.76300578034682C412.5,236.76300578034682 412.5,236.76300578034682 330,236.76300578034682" style="stroke: #2b79a5; stroke-opacity: 0.2;"></path><path class="link" d="M495,506.8208092485549C412.5,506.8208092485549 412.5,506.8208092485549 330,506.8208092485549" style="stroke: #2b79a5; stroke-opacity: 0.2;"></path><path class="link" d="M495,584.5086705202312C412.5,584.5086705202312 412.5,584.5086705202312 330,584.5086705202312" style="stroke: #2b79a5; stroke-opacity: 0.2;"></path><path class="link" d="M660,59.190751445086704C577.5,59.190751445086704 577.5,51.79190751445087 495,51.79190751445087" style="stroke: #2b79a5; stroke-opacity: 0.2;"></path><path class="link" d="M660,120.23121387283237C577.5,120.23121387283237 577.5,236.76300578034682 495,236.76300578034682" style="stroke: #2b79a5; stroke-opacity: 0.2;"></path><path class="link" d="M660,353.29479768786126C577.5,353.29479768786126 577.5,236.76300578034682 495,236.76300578034682" style="stroke: #2b79a5; stroke-opacity: 0.2;"></path><path class="link" d="M660,506.8208092485549C577.5,506.8208092485549 577.5,506.8208092485549 495,506.8208092485549" style="stroke: #2b79a5; stroke-opacity: 0.2;"></path><path class="link" d="M660,551.2138728323699C577.5,551.2138728323699 577.5,584.5086705202312 495,584.5086705202312" style="stroke: #2b79a5; stroke-opacity: 0.2;"></path><path class="link" d="M660,580.8092485549133C577.5,580.8092485549133 577.5,584.5086705202312 495,584.5086705202312" style="stroke: #2b79a5; stroke-opacity: 0.2;"></path><path class="link" d="M660,617.8034682080925C577.5,617.8034682080925 577.5,584.5086705202312 495,584.5086705202312" style="stroke: #2b79a5; stroke-opacity: 0.2;"></path><path class="link" d="M825,96.18497109826589C742.5,96.18497109826589 742.5,120.23121387283237 660,120.23121387283237" style="stroke: #2b79a5; stroke-opacity: 0.2;"></path><path class="link" d="M825,144.27745664739885C742.5,144.27745664739885 742.5,120.23121387283237 660,120.23121387283237" style="stroke: #2b79a5; stroke-opacity: 0.2;"></path><path class="link" d="M825,244.16184971098266C742.5,244.16184971098266 742.5,353.29479768786126 660,353.29479768786126" style="stroke: #2b79a5; stroke-opacity: 0.2;"></path><path class="link" d="M825,377.3410404624277C742.5,377.3410404624277 742.5,353.29479768786126 660,353.29479768786126" style="stroke: #2b79a5; stroke-opacity: 0.2;"></path><path class="link" d="M825,462.42774566473986C742.5,462.42774566473986 742.5,353.29479768786126 660,353.29479768786126" style="stroke: #2b79a5; stroke-opacity: 0.2;"></path><path class="link" d="M825,492.02312138728325C742.5,492.02312138728325 742.5,506.8208092485549 660,506.8208092485549" style="stroke: #2b79a5; stroke-opacity: 0.2;"></path><path class="link" d="M825,521.6184971098265C742.5,521.6184971098265 742.5,506.8208092485549 660,506.8208092485549" style="stroke: #2b79a5; stroke-opacity: 0.2;"></path><path class="link" d="M825,580.8092485549133C742.5,580.8092485549133 742.5,580.8092485549133 660,580.8092485549133" style="stroke: #2b79a5; stroke-opacity: 0.2;"></path><path class="link" d="M825,617.8034682080925C742.5,617.8034682080925 742.5,617.8034682080925 660,617.8034682080925" style="stroke: #2b79a5; stroke-opacity: 0.2;"></path><path class="link" d="M990,77.6878612716763C907.5,77.6878612716763 907.5,96.18497109826589 825,96.18497109826589" style="stroke: #2b79a5; stroke-opacity: 0.2;"></path><path class="link" d="M990,96.18497109826589C907.5,96.18497109826589 907.5,96.18497109826589 825,96.18497109826589" style="stroke: #2b79a5; stroke-opacity: 0.2;"></path><path class="link" d="M990,114.68208092485548C907.5,114.68208092485548 907.5,96.18497109826589 825,96.18497109826589" style="stroke: #2b79a5; stroke-opacity: 0.2;"></path><path class="link" d="M990,144.27745664739885C907.5,144.27745664739885 907.5,144.27745664739885 825,144.27745664739885" style="stroke: #2b79a5; stroke-opacity: 0.2;"></path><path class="link" d="M990,210.86705202312137C907.5,210.86705202312137 907.5,244.16184971098266 825,244.16184971098266" style="stroke: #2b79a5; stroke-opacity: 0.2;"></path><path class="link" d="M990,277.4566473988439C907.5,277.4566473988439 907.5,244.16184971098266 825,244.16184971098266" style="stroke: #2b79a5; stroke-opacity: 0.2;"></path><path class="link" d="M990,321.84971098265896C907.5,321.84971098265896 907.5,377.3410404624277 825,377.3410404624277" style="stroke: #2b79a5; stroke-opacity: 0.2;"></path><path class="link" d="M990,366.242774566474C907.5,366.242774566474 907.5,377.3410404624277 825,377.3410404624277" style="stroke: #2b79a5; stroke-opacity: 0.2;"></path><path class="link" d="M990,418.0346820809248C907.5,418.0346820809248 907.5,377.3410404624277 825,377.3410404624277" style="stroke: #2b79a5; stroke-opacity: 0.2;"></path><path class="link" d="M990,432.8323699421965C907.5,432.8323699421965 907.5,377.3410404624277 825,377.3410404624277" style="stroke: #2b79a5; stroke-opacity: 0.2;"></path><path class="link" d="M990,462.42774566473986C907.5,462.42774566473986 907.5,462.42774566473986 825,462.42774566473986" style="stroke: #2b79a5; stroke-opacity: 0.2;"></path><path class="link" d="M990,521.6184971098265C907.5,521.6184971098265 907.5,521.6184971098265 825,521.6184971098265" style="stroke: #2b79a5; stroke-opacity: 0.2;"></path><path class="link" d="M990,580.8092485549133C907.5,580.8092485549133 907.5,580.8092485549133 825,580.8092485549133" style="stroke: #2b79a5; stroke-opacity: 0.2;"></path><path class="link" d="M1155,144.27745664739885C1072.5,144.27745664739885 1072.5,144.27745664739885 990,144.27745664739885" style="stroke: #2b79a5; stroke-opacity: 0.2;"></path><path class="link" d="M1155,173.8728323699422C1072.5,173.8728323699422 1072.5,210.86705202312137 990,210.86705202312137" style="stroke: #2b79a5; stroke-opacity: 0.2;"></path><path class="link" d="M1155,210.86705202312137C1072.5,210.86705202312137 1072.5,210.86705202312137 990,210.86705202312137" style="stroke: #2b79a5; stroke-opacity: 0.2;"></path><path class="link" d="M1155,247.86127167630056C1072.5,247.86127167630056 1072.5,210.86705202312137 990,210.86705202312137" style="stroke: #2b79a5; stroke-opacity: 0.2;"></path><path class="link" d="M1155,307.05202312138726C1072.5,307.05202312138726 1072.5,321.84971098265896 990,321.84971098265896" style="stroke: #2b79a5; stroke-opacity: 0.2;"></path><path class="link" d="M1155,336.6473988439306C1072.5,336.6473988439306 1072.5,321.84971098265896 990,321.84971098265896" style="stroke: #2b79a5; stroke-opacity: 0.2;"></path><path class="link" d="M1155,366.242774566474C1072.5,366.242774566474 1072.5,366.242774566474 990,366.242774566474" style="stroke: #2b79a5; stroke-opacity: 0.2;"></path><path class="link" d="M1155,418.0346820809248C1072.5,418.0346820809248 1072.5,418.0346820809248 990,418.0346820809248" style="stroke: #2b79a5; stroke-opacity: 0.2;"></path><path class="link" d="M1320,173.8728323699422C1237.5,173.8728323699422 1237.5,173.8728323699422 1155,173.8728323699422" style="stroke: #2b79a5; stroke-opacity: 0.2;"></path><path class="link" d="M1320,229.36416184971097C1237.5,229.36416184971097 1237.5,247.86127167630056 1155,247.86127167630056" style="stroke: #2b79a5; stroke-opacity: 0.2;"></path><path class="link" d="M1320,247.86127167630056C1237.5,247.86127167630056 1237.5,247.86127167630056 1155,247.86127167630056" style="stroke: #2b79a5; stroke-opacity: 0.2;"></path><path class="link" d="M1320,266.35838150289015C1237.5,266.35838150289015 1237.5,247.86127167630056 1155,247.86127167630056" style="stroke: #2b79a5; stroke-opacity: 0.2;"></path><path class="link" d="M1320,336.6473988439306C1237.5,336.6473988439306 1237.5,336.6473988439306 1155,336.6473988439306" style="stroke: #2b79a5; stroke-opacity: 0.2;"></path><path class="link" d="M1320,395.83815028901734C1237.5,395.83815028901734 1237.5,418.0346820809248 1155,418.0346820809248" style="stroke: #2b79a5; stroke-opacity: 0.2;"></path><path class="link" d="M1320,410.63583815028903C1237.5,410.63583815028903 1237.5,418.0346820809248 1155,418.0346820809248" style="stroke: #2b79a5; stroke-opacity: 0.2;"></path><path class="link" d="M1320,440.23121387283237C1237.5,440.23121387283237 1237.5,418.0346820809248 1155,418.0346820809248" style="stroke: #2b79a5; stroke-opacity: 0.2;"></path><path class="link" d="M1485,155.3757225433526C1402.5,155.3757225433526 1402.5,173.8728323699422 1320,173.8728323699422" style="stroke: #2b79a5; stroke-opacity: 0.2;"></path><path class="link" d="M1485,173.8728323699422C1402.5,173.8728323699422 1402.5,173.8728323699422 1320,173.8728323699422" style="stroke: #2b79a5; stroke-opacity: 0.2;"></path><path class="link" d="M1485,192.36994219653178C1402.5,192.36994219653178 1402.5,173.8728323699422 1320,173.8728323699422" style="stroke: #2b79a5; stroke-opacity: 0.2;"></path><path class="link" d="M1485,321.84971098265896C1402.5,321.84971098265896 1402.5,336.6473988439306 1320,336.6473988439306" style="stroke: #2b79a5; stroke-opacity: 0.2;"></path><path class="link" d="M1485,351.4450867052023C1402.5,351.4450867052023 1402.5,336.6473988439306 1320,336.6473988439306" style="stroke: #2b79a5; stroke-opacity: 0.2;"></path><path class="link" d="M1650,192.36994219653178C1567.5,192.36994219653178 1567.5,192.36994219653178 1485,192.36994219653178" style="stroke: #2b79a5; stroke-opacity: 0.2;"></path><path class="link" d="M1650,351.4450867052023C1567.5,351.4450867052023 1567.5,351.4450867052023 1485,351.4450867052023" style="stroke: #2b79a5; stroke-opacity: 0.2;"></path><path class="link" d="M1815,170.17341040462426C1732.5,170.17341040462426 1732.5,192.36994219653178 1650,192.36994219653178" style="stroke: #2b79a5; stroke-opacity: 0.2;"></path><path class="link" d="M1815,192.36994219653178C1732.5,192.36994219653178 1732.5,192.36994219653178 1650,192.36994219653178" style="stroke: #2b79a5; stroke-opacity: 0.2;"></path><path class="link" d="M1815,214.5664739884393C1732.5,214.5664739884393 1732.5,192.36994219653178 1650,192.36994219653178" style="stroke: #2b79a5; stroke-opacity: 0.2;"></path><g class="node node--internal" transform="translate(0,348.67052023121386)"><circle r="10" style="fill: #2b79a5;"></circle><text dy=".35em" x="-13" style="text-anchor: end;">module</text></g><g class="node node--internal" transform="translate(165,127.6300578034682)"><circle r="10" style="fill: #2b79a5;"></circle><text dy=".35em" x="-13" style="text-anchor: end;">def, define, function, foo</text></g><g class="node node--internal" transform="translate(165,492.02312138728325)"><circle r="10" style="fill: #2b79a5;"></circle><text dy=".35em" x="-13" style="text-anchor: end;">def, define, function, bar</text></g><g class="node node--internal" transform="translate(165,569.7109826589596)"><circle r="10" style="fill: #2b79a5;"></circle><text dy=".35em" x="-13" style="text-anchor: end;">call</text></g><g class="node node--internal" transform="translate(330,33.29479768786127)"><circle r="10" style="fill: #2b79a5;"></circle><text dy=".35em" x="-13" style="text-anchor: end;">parameters</text></g><g class="node node--internal" transform="translate(330,236.76300578034682)"><circle r="10" style="fill: #2b79a5;"></circle><text dy=".35em" x="-13" style="text-anchor: end;">body</text></g><g class="node node--leaf" transform="translate(330,492.02312138728325)"><circle r="10" style="fill: #2b79a5;"></circle><text dy=".35em" x="-13" style="text-anchor: end;">parameters</text></g><g class="node node--internal" transform="translate(330,506.8208092485549)"><circle r="10" style="fill: #2b79a5;"></circle><text dy=".35em" x="-13" style="text-anchor: end;">body</text></g><g class="node node--internal" transform="translate(330,554.9132947976879)"><circle r="10" style="fill: #2b79a5;"></circle><text dy=".35em" x="-13" style="text-anchor: end;">variable</text></g><g class="node node--internal" transform="translate(330,584.5086705202312)"><circle r="10" style="fill: #2b79a5;"></circle><text dy=".35em" x="-13" style="text-anchor: end;">argument</text></g><g class="node node--internal" transform="translate(495,14.797687861271676)"><circle r="10" style="fill: #2b79a5;"></circle><text dy=".35em" x="-13" style="text-anchor: end;">parameter</text></g><g class="node node--internal" transform="translate(495,51.79190751445087)"><circle r="10" style="fill: #2b79a5;"></circle><text dy=".35em" x="-13" style="text-anchor: end;">parameter</text></g><g class="node node--internal" transform="translate(495,236.76300578034682)"><circle r="10" style="fill: #2b79a5;"></circle><text dy=".35em" x="-13" style="text-anchor: end;">conditional, if, switch</text></g><g class="node node--internal" transform="translate(495,506.8208092485549)"><circle r="10" style="fill: #2b79a5;"></circle><text dy=".35em" x="-13" style="text-anchor: end;">return</text></g><g class="node node--internal" transform="translate(495,584.5086705202312)"><circle r="10" style="fill: #2b79a5;"></circle><text dy=".35em" x="-13" style="text-anchor: end;">call</text></g><g class="node node--internal" transform="translate(660,59.190751445086704)"><circle r="10" style="fill: #2b79a5;"></circle><text dy=".35em" x="-13" style="text-anchor: end;">literal, integer</text></g><g class="node node--internal" transform="translate(660,120.23121387283237)"><circle r="10" style="fill: #2b79a5;"></circle><text dy=".35em" x="-13" style="text-anchor: end;">case</text></g><g class="node node--internal" transform="translate(660,353.29479768786126)"><circle r="10" style="fill: #2b79a5;"></circle><text dy=".35em" x="-13" style="text-anchor: end;">else</text></g><g class="node node--internal" transform="translate(660,506.8208092485549)"><circle r="10" style="fill: #2b79a5;"></circle><text dy=".35em" x="-13" style="text-anchor: end;">call</text></g><g class="node node--internal" transform="translate(660,551.2138728323699)"><circle r="10" style="fill: #2b79a5;"></circle><text dy=".35em" x="-13" style="text-anchor: end;">variable</text></g><g class="node node--internal" transform="translate(660,580.8092485549133)"><circle r="10" style="fill: #2b79a5;"></circle><text dy=".35em" x="-13" style="text-anchor: end;">argument</text></g><g class="node node--internal" transform="translate(660,617.8034682080925)"><circle r="10" style="fill: #2b79a5;"></circle><text dy=".35em" x="-13" style="text-anchor: end;">argument</text></g><g class="node node--internal" transform="translate(825,96.18497109826589)"><circle r="10" style="fill: #2b79a5;"></circle><text dy=".35em" x="-13" style="text-anchor: end;">operator, binary</text></g><g class="node node--internal" transform="translate(825,144.27745664739885)"><circle r="10" style="fill: #2b79a5;"></circle><text dy=".35em" x="-13" style="text-anchor: end;">body</text></g><g class="node node--internal" transform="translate(825,244.16184971098266)"><circle r="10" style="fill: #2b79a5;"></circle><text dy=".35em" x="-13" style="text-anchor: end;">assign, =</text></g><g class="node node--internal" transform="translate(825,377.3410404624277)"><circle r="10" style="fill: #2b79a5;"></circle><text dy=".35em" x="-13" style="text-anchor: end;">for, loop, foreach</text></g><g class="node node--internal" transform="translate(825,462.42774566473986)"><circle r="10" style="fill: #2b79a5;"></circle><text dy=".35em" x="-13" style="text-anchor: end;">return</text></g><g class="node node--internal" transform="translate(825,492.02312138728325)"><circle r="10" style="fill: #2b79a5;"></circle><text dy=".35em" x="-13" style="text-anchor: end;">variable</text></g><g class="node node--internal" transform="translate(825,521.6184971098265)"><circle r="10" style="fill: #2b79a5;"></circle><text dy=".35em" x="-13" style="text-anchor: end;">argument</text></g><g class="node node--internal" transform="translate(825,580.8092485549133)"><circle r="10" style="fill: #2b79a5;"></circle><text dy=".35em" x="-13" style="text-anchor: end;">call</text></g><g class="node node--internal" transform="translate(825,617.8034682080925)"><circle r="10" style="fill: #2b79a5;"></circle><text dy=".35em" x="-13" style="text-anchor: end;">literal, integer</text></g><g class="node node--internal" transform="translate(990,77.6878612716763)"><circle r="10" style="fill: #2b79a5;"></circle><text dy=".35em" x="-13" style="text-anchor: end;">literal, integer</text></g><g class="node node--leaf" transform="translate(990,96.18497109826589)"><circle r="10" style="fill: #2b79a5;"></circle><text dy=".35em" x="-13" style="text-anchor: end;">lessthan, &lt;</text></g><g class="node node--internal" transform="translate(990,114.68208092485548)"><circle r="10" style="fill: #2b79a5;"></circle><text dy=".35em" x="-13" style="text-anchor: end;">variable</text></g><g class="node node--internal" transform="translate(990,144.27745664739885)"><circle r="10" style="fill: #2b79a5;"></circle><text dy=".35em" x="-13" style="text-anchor: end;">return</text></g><g class="node node--internal" transform="translate(990,210.86705202312137)"><circle r="10" style="fill: #2b79a5;"></circle><text dy=".35em" x="-13" style="text-anchor: end;">operator, binary</text></g><g class="node node--internal" transform="translate(990,277.4566473988439)"><circle r="10" style="fill: #2b79a5;"></circle><text dy=".35em" x="-13" style="text-anchor: end;">variable</text></g><g class="node node--internal" transform="translate(990,321.84971098265896)"><circle r="10" style="fill: #2b79a5;"></circle><text dy=".35em" x="-13" style="text-anchor: end;">call</text></g><g class="node node--internal" transform="translate(990,366.242774566474)"><circle r="10" style="fill: #2b79a5;"></circle><text dy=".35em" x="-13" style="text-anchor: end;">targets</text></g><g class="node node--internal" transform="translate(990,418.0346820809248)"><circle r="10" style="fill: #2b79a5;"></circle><text dy=".35em" x="-13" style="text-anchor: end;">body</text></g><g class="node node--leaf" transform="translate(990,432.8323699421965)"><circle r="10" style="fill: #2b79a5;"></circle><text dy=".35em" x="-13" style="text-anchor: end;">else</text></g><g class="node node--internal" transform="translate(990,462.42774566473986)"><circle r="10" style="fill: #2b79a5;"></circle><text dy=".35em" x="-13" style="text-anchor: end;">variable</text></g><g class="node node--internal" transform="translate(990,521.6184971098265)"><circle r="10" style="fill: #2b79a5;"></circle><text dy=".35em" x="-13" style="text-anchor: end;">literal, integer</text></g><g class="node node--internal" transform="translate(990,580.8092485549133)"><circle r="10" style="fill: #2b79a5;"></circle><text dy=".35em" x="-13" style="text-anchor: end;">variable</text></g><g class="node node--internal" transform="translate(1155,144.27745664739885)"><circle r="10" style="fill: #2b79a5;"></circle><text dy=".35em" x="-13" style="text-anchor: end;">variable</text></g><g class="node node--internal" transform="translate(1155,173.8728323699422)"><circle r="10" style="fill: #2b79a5;"></circle><text dy=".35em" x="-13" style="text-anchor: end;">paren</text></g><g class="node node--leaf" transform="translate(1155,210.86705202312137)"><circle r="10" style="fill: #2b79a5;"></circle><text dy=".35em" x="-13" style="text-anchor: end;">plus, add, +</text></g><g class="node node--internal" transform="translate(1155,247.86127167630056)"><circle r="10" style="fill: #2b79a5;"></circle><text dy=".35em" x="-13" style="text-anchor: end;">operator, binary</text></g><g class="node node--internal" transform="translate(1155,307.05202312138726)"><circle r="10" style="fill: #2b79a5;"></circle><text dy=".35em" x="-13" style="text-anchor: end;">variable</text></g><g class="node node--internal" transform="translate(1155,336.6473988439306)"><circle r="10" style="fill: #2b79a5;"></circle><text dy=".35em" x="-13" style="text-anchor: end;">argument</text></g><g class="node node--internal" transform="translate(1155,366.242774566474)"><circle r="10" style="fill: #2b79a5;"></circle><text dy=".35em" x="-13" style="text-anchor: end;">variable</text></g><g class="node node--internal" transform="translate(1155,418.0346820809248)"><circle r="10" style="fill: #2b79a5;"></circle><text dy=".35em" x="-13" style="text-anchor: end;">augmented, assign, =</text></g><g class="node node--internal" transform="translate(1320,173.8728323699422)"><circle r="10" style="fill: #2b79a5;"></circle><text dy=".35em" x="-13" style="text-anchor: end;">operator, binary</text></g><g class="node node--internal" transform="translate(1320,229.36416184971097)"><circle r="10" style="fill: #2b79a5;"></circle><text dy=".35em" x="-13" style="text-anchor: end;">literal, integer</text></g><g class="node node--leaf" transform="translate(1320,247.86127167630056)"><circle r="10" style="fill: #2b79a5;"></circle><text dy=".35em" x="-13" style="text-anchor: end;">minus, subtract, -</text></g><g class="node node--internal" transform="translate(1320,266.35838150289015)"><circle r="10" style="fill: #2b79a5;"></circle><text dy=".35em" x="-13" style="text-anchor: end;">variable</text></g><g class="node node--internal" transform="translate(1320,336.6473988439306)"><circle r="10" style="fill: #2b79a5;"></circle><text dy=".35em" x="-13" style="text-anchor: end;">call</text></g><g class="node node--leaf" transform="translate(1320,395.83815028901734)"><circle r="10" style="fill: #2b79a5;"></circle><text dy=".35em" x="-13" style="text-anchor: end;">plusassign, +=</text></g><g class="node node--internal" transform="translate(1320,410.63583815028903)"><circle r="10" style="fill: #2b79a5;"></circle><text dy=".35em" x="-13" style="text-anchor: end;">variable</text></g><g class="node node--internal" transform="translate(1320,440.23121387283237)"><circle r="10" style="fill: #2b79a5;"></circle><text dy=".35em" x="-13" style="text-anchor: end;">variable</text></g><g class="node node--internal" transform="translate(1485,155.3757225433526)"><circle r="10" style="fill: #2b79a5;"></circle><text dy=".35em" x="-13" style="text-anchor: end;">literal, integer</text></g><g class="node node--leaf" transform="translate(1485,173.8728323699422)"><circle r="10" style="fill: #2b79a5;"></circle><text dy=".35em" x="-13" style="text-anchor: end;">divide, /</text></g><g class="node node--internal" transform="translate(1485,192.36994219653178)"><circle r="10" style="fill: #2b79a5;"></circle><text dy=".35em" x="-13" style="text-anchor: end;">paren</text></g><g class="node node--internal" transform="translate(1485,321.84971098265896)"><circle r="10" style="fill: #2b79a5;"></circle><text dy=".35em" x="-13" style="text-anchor: end;">variable</text></g><g class="node node--internal" transform="translate(1485,351.4450867052023)"><circle r="10" style="fill: #2b79a5;"></circle><text dy=".35em" x="-13" style="text-anchor: end;">argument</text></g><g class="node node--internal" transform="translate(1650,192.36994219653178)"><circle r="10" style="fill: #2b79a5;"></circle><text dy=".35em" x="-13" style="text-anchor: end;">operator, binary</text></g><g class="node node--internal" transform="translate(1650,351.4450867052023)"><circle r="10" style="fill: #2b79a5;"></circle><text dy=".35em" x="-13" style="text-anchor: end;">variable</text></g><g class="node node--internal" transform="translate(1815,170.17341040462426)"><circle r="10" style="fill: #2b79a5;"></circle><text dy=".35em" x="-13" style="text-anchor: end;">literal, integer</text></g><g class="node node--leaf" transform="translate(1815,192.36994219653178)"><circle r="10" style="fill: #2b79a5;"></circle><text dy=".35em" x="-13" style="text-anchor: end;">multiply, *</text></g><g class="node node--internal" transform="translate(1815,214.5664739884393)"><circle r="10" style="fill: #2b79a5;"></circle><text dy=".35em" x="-13" style="text-anchor: end;">literal, integer</text></g></g></svg>
