<svg xmlns="http://www.w3.org/2000/svg" width="800" height="150" version="1.1"><defs><style type="text/css"><![CDATA[ .node circle {fill: #2b79a5;}.node text {font: 12px sans-serif;}.link {fill: none;stroke: #e0e0e0;stroke-width: 2px;} ]]></style></defs><g transform="translate(90,20)"><path class="link" d="M155,15C77.5,15 77.5,45 0,45" style="stroke: #2b79a5; stroke-opacity: 0.2;"></path><path class="link" d="M155,45C77.5,45 77.5,45 0,45" style="stroke: #2b79a5; stroke-opacity: 0.2;"></path><path class="link" d="M155,75C77.5,75 77.5,45 0,45" style="stroke: #2b79a5; stroke-opacity: 0.2;"></path><path class="link" d="M310,75C232.5,75 232.5,75 155,75" style="stroke: #333333; stroke-opacity: 0.2;"></path><path class="link" d="M465,75C387.5,75 387.5,75 310,75" style="stroke: #2b79a5; stroke-opacity: 0.2;"></path><path class="link" d="M620,75C542.5,75 542.5,75 465,75" style="stroke: #2b79a5; stroke-opacity: 0.2;"></path><g class="node node--internal" transform="translate(0,45)"><circle r="10" style="fill: #2b79a5;"></circle><text dy=".35em" x="-13" style="text-anchor: end;">Module</text></g><g class="node node--leaf" transform="translate(155,15)"><circle r="10" style="fill: #2b79a5;"></circle><text dy=".35em" x="13" style="text-anchor: start;">Assign</text></g><g class="node node--leaf" transform="translate(155,45)"><circle r="10" style="fill: #2b79a5;"></circle><text dy=".35em" x="13" style="text-anchor: start;">Assign</text></g><g class="node node--internal" transform="translate(155,75)"><circle r="10" style="fill: #2b79a5;"></circle><text dy=".35em" x="-13" style="text-anchor: end;">Call</text></g><g class="node node--internal" transform="translate(310,75)"><circle r="10" style="fill: #333333;"></circle><text dy=".35em" x="-13" style="text-anchor: end;">args</text></g><g class="node node--internal" transform="translate(465,75)"><circle r="10" style="fill: #2b79a5;"></circle><text dy=".35em" x="-13" style="text-anchor: end;">Call</text></g><g class="node node--leaf" transform="translate(620,75)"><circle r="10" style="fill: #2b79a5;"></circle><text dy=".35em" x="13" style="text-anchor: start;">args</text></g></g></svg>
